<svg width="50" height="50" viewBox="0 0 50 50" fill="none" xmlns="http://www.w3.org/2000/svg">
<path d="M23.5677 31.823L20.8594 34.4792M23.5677 31.823L25.4688 35.1303M23.5677 31.823L24.1406 29.349M35.7292 28.3334L31.9531 28.698L33.2552 32.2657M17.3438 17.0313L20.6511 18.3074L21.4844 14.8699M29.5313 18.724L30 15.2084M29.5313 18.724H33.0729M29.5313 18.724L27.5261 20.2084M16.3802 29.4272L17.7083 26.1459L14.2708 25.2865" stroke="#0B41CD" stroke-width="2.08333" stroke-linecap="round" stroke-linejoin="round"/>
<path d="M28.6198 23.5677C28.6979 23.5677 28.776 23.5417 28.8802 23.5417C30.7292 23.5417 32.2135 25.026 32.2135 26.875C32.2135 28.724 30.7292 30.2083 28.8802 30.2083C27.6562 30.2083 26.5625 29.5312 25.9896 28.5417C25.9896 28.5417 25.9635 28.4896 25.8333 28.5417L25.5469 28.6719C24.8437 29.0104 24.0625 29.2187 23.2292 29.2187C20.2865 29.2187 17.8906 26.8229 17.8906 23.8802C17.8906 20.9375 20.2865 18.5417 23.2292 18.5417C26.1719 18.5417 28.5677 20.9375 28.5677 23.8802C28.5677 24.349 28.5156 24.7917 28.4115 25.2083M25 3.125V9.375M46.875 25H40.625M25 46.875V40.625M3.125 25H9.375M43.2812 29.1667C41.6927 36.1719 36.1719 41.6927 29.1667 43.2812M43.2812 20.8333C41.6927 13.8281 36.1719 8.30729 29.1667 6.71875M6.71875 29.1667C8.30729 36.1719 13.8281 41.6927 20.8333 43.2812M6.71875 20.8333C8.30729 13.8281 13.8281 8.30729 20.8333 6.71875" stroke="#0B41CD" stroke-width="2.08333" stroke-linecap="round" stroke-linejoin="round"/>
</svg>
