<svg width="16" height="16" viewBox="0 0 16 16" fill="none" xmlns="http://www.w3.org/2000/svg">
<path d="M8 1.44C10.14 1.44 10.39 1.45 11.23 1.49C11.74 1.49 12.24 1.59 12.72 1.76C13.07 1.89 13.38 2.1 13.64 2.36C13.9 2.62 14.11 2.94 14.24 3.28C14.41 3.76 14.51 4.26 14.51 4.77C14.55 5.61 14.56 5.87 14.56 8C14.56 10.13 14.56 10.4 14.51 11.23C14.51 11.74 14.41 12.24 14.24 12.72C14.1074 13.0658 13.9036 13.3798 13.6417 13.6417C13.3798 13.9036 13.0658 14.1074 12.72 14.24C12.24 14.41 11.74 14.51 11.24 14.51C10.39 14.55 10.14 14.56 8 14.56C5.87 14.56 5.61 14.56 4.77 14.51C4.27 14.51 3.76 14.41 3.28 14.24C2.93219 14.1116 2.61775 13.9065 2.36 13.64C2.09349 13.3823 1.88842 13.0678 1.76 12.72C1.58496 12.2426 1.49362 11.7385 1.49 11.23C1.45 10.39 1.44 10.13 1.44 8C1.44 5.87 1.45 5.61 1.49 4.77C1.49 4.26 1.59 3.76 1.76 3.28C1.89 2.93 2.1 2.62 2.36 2.36C2.62 2.1 2.94 1.89 3.28 1.76C3.76 1.59 4.26 1.49 4.77 1.49C5.61 1.45 5.87 1.44 8 1.44ZM8 0C5.83 0 5.55 1.8999e-07 4.7 0.0500002C4.04 0.0600002 3.38 0.19 2.76 0.42C2.22505 0.619059 1.74031 0.933116 1.34 1.34C0.94 1.74 0.62 2.23 0.42 2.76C0.187985 3.38113 0.0628818 4.03708 0.0500002 4.7C1.8999e-07 5.56 0 5.83 0 8C0 10.17 1.8999e-07 10.45 0.0500002 11.3C0.0600002 11.96 0.19 12.62 0.42 13.24C0.62 13.77 0.94 14.26 1.34 14.66C1.74 15.06 2.23 15.38 2.76 15.58C3.38 15.81 4.04 15.94 4.7 15.95C5.56 15.99 5.83 16 8 16C10.17 16 10.45 16 11.3 15.95C11.9629 15.9371 12.6189 15.812 13.24 15.58C13.7712 15.374 14.2537 15.0595 14.6566 14.6566C15.0595 14.2537 15.374 13.7712 15.58 13.24C15.82 12.62 15.94 11.96 15.95 11.3C15.99 10.44 16 10.17 16 8C16 5.82 16 5.55 15.95 4.7C15.9371 4.03708 15.812 3.38113 15.58 2.76C15.3809 2.22505 15.0669 1.74031 14.66 1.34C14.2597 0.933116 13.775 0.619059 13.24 0.42C12.6189 0.187985 11.9629 0.0628818 11.3 0.0500002C10.44 1.8999e-07 10.17 0 8 0ZM8 3.9C6.91261 3.9 5.86976 4.33196 5.10086 5.10086C4.33196 5.86976 3.9 6.91261 3.9 8C3.9 9.08739 4.33196 10.1302 5.10086 10.8991C5.86976 11.668 6.91261 12.1 8 12.1C9.08739 12.1 10.1302 11.668 10.8991 10.8991C11.668 10.1302 12.1 9.08739 12.1 8C12.1 6.91261 11.668 5.86976 10.8991 5.10086C10.1302 4.33196 9.08739 3.9 8 3.9ZM8 10.67C7.29187 10.67 6.61275 10.3887 6.11203 9.88797C5.6113 9.38725 5.33 8.70813 5.33 8C5.33 7.29187 5.6113 6.61275 6.11203 6.11203C6.61275 5.6113 7.29187 5.33 8 5.33C8.70813 5.33 9.38725 5.6113 9.88797 6.11203C10.3887 6.61275 10.67 7.29187 10.67 8C10.67 8.70813 10.3887 9.38725 9.88797 9.88797C9.38725 10.3887 8.70813 10.67 8 10.67ZM13.23 3.73C13.23 3.98461 13.1289 4.22879 12.9488 4.40882C12.7688 4.58886 12.5246 4.69 12.27 4.69C12.0154 4.69 11.7712 4.58886 11.5912 4.40882C11.4111 4.22879 11.31 3.98461 11.31 3.73C11.31 3.47539 11.4111 3.23121 11.5912 3.05118C11.7712 2.87114 12.0154 2.77 12.27 2.77C12.5246 2.77 12.7688 2.87114 12.9488 3.05118C13.1289 3.23121 13.23 3.47539 13.23 3.73Z" fill="#544F4F"/>
</svg>
